<svg xmlns="http://www.w3.org/2000/svg" aria-hidden="true" role="img" width="1em" height="1em" preserveAspectRatio="xMidYMid meet" viewBox="0 0 24 24"><path d="M12 21a9 9 0 1 1 9-9a9 9 0 0 1-9 9zm0-16.5a7.5 7.5 0 1 0 7.5 7.5A7.5 7.5 0 0 0 12 4.5z" fill="currentColor"/><path d="M9 15.75a.74.74 0 0 1-.53-.22a.75.75 0 0 1 0-1.06l6-6a.75.75 0 0 1 1.06 1.06l-6 6a.74.74 0 0 1-.53.22z" fill="currentColor"/><path d="M15 15.75a.74.74 0 0 1-.53-.22l-6-6a.75.75 0 0 1 1.06-1.06l6 6a.75.75 0 0 1 0 1.06a.74.74 0 0 1-.53.22z" fill="currentColor"/></svg>