<svg xmlns="http://www.w3.org/2000/svg" style="isolation:isolate" viewBox="0 0 997.519 562.853" width="1330.025" height="750.471"><defs><clipPath id="a"><path d="M0 0h997.519v562.853H0z"/></clipPath></defs><g clip-path="url(#a)"><clipPath id="b"><path d="M.001 0h997.518v562.853H.001V0Z" fill="#FFF"/></clipPath><g fill="#3F3D56" clip-path="url(#b)"><path d="M928.752 7.228H578.043V0H419.019v7.228H66.861c-13.103 0-23.726 10.623-23.726 23.725v480.224c.001 13.103 10.623 23.724 23.726 23.724h861.891c13.103 0 23.725-10.623 23.725-23.725V30.949c-.001-13.101-10.621-23.721-23.722-23.722l-.003.001ZM909.341 27.78H86.275a22.29 22.29 0 0 0-11.189 2.837c-6.757 3.782-11.364 10.971-11.467 19.271V497.38c.154 12.36 10.296 22.257 22.656 22.108h823.066c12.36.149 22.503-9.748 22.656-22.108V49.885c-.154-12.358-10.294-22.253-22.653-22.105h-.003Z" fill-rule="evenodd"/><path d="M969.22 515.306h-82.533v-4.074c0-.447-.534-.808-1.18-.808H857.2c-.652 0-1.18.361-1.18.808v4.074h-17.68v-4.074c0-.447-.533-.808-1.18-.808h-28.297c-.652 0-1.18.361-1.18.808v4.074H790v-4.074c0-.447-.533-.808-1.18-.808h-28.301c-.652 0-1.18.361-1.18.808v4.074h-17.685v-4.074c0-.447-.534-.808-1.18-.808h-28.296c-.651 0-1.18.361-1.18.808v4.074h-17.687v-4.074c0-.447-.533-.808-1.18-.808h-28.297c-.652 0-1.18.361-1.18.808v4.074h-17.687v-4.074c0-.447-.533-.808-1.18-.808h-28.291c-.652 0-1.18.361-1.18.808v4.074h-17.692v-4.074c0-.447-.533-.808-1.18-.808H373.775c-.651 0-1.18.361-1.18.808v4.074H354.91v-4.074c0-.447-.534-.808-1.18-.808h-28.299c-.652 0-1.18.361-1.18.808v4.074h-17.685v-4.074c0-.447-.534-.808-1.18-.808H277.09c-.652 0-1.18.361-1.18.808v4.074h-17.687v-4.074c0-.447-.533-.808-1.18-.808h-28.297c-.652 0-1.18.361-1.18.808v4.074h-17.683v-4.074c0-.447-.533-.808-1.18-.808h-28.302c-.651 0-1.18.361-1.18.808v4.074h-17.683v-4.074c0-.447-.533-.808-1.18-.808h-28.299c-.652 0-1.18.361-1.18.808v4.074h-17.678v-4.074c0-.447-.534-.808-1.18-.808h-28.31c-.652 0-1.18.361-1.18.808v4.074H28.299c-15.632 0-28.298 8.684-28.298 19.391v8.767c0 10.708 12.666 19.389 28.298 19.389H969.22c15.628 0 28.297-8.68 28.299-19.389v-8.767c0-10.709-12.667-19.389-28.299-19.389v-.002Z"/></g></g></svg>