<svg xmlns="http://www.w3.org/2000/svg" width="234.687" height="578.065"><g data-name="Group 2"><path fill="#e6e6e6" d="m100.529 69.647 1.045-15.687 15.686 1.045-1.045 15.686z" data-name="Rectangle 3"/><path fill="#ccc" d="m91.453 62.289 19.048 1.269-1.269 19.048-19.048-1.269zm18.165 2.042-17.392-1.158-1.158 17.392 17.392 1.158z" data-name="Path 13"/><path fill="#e6e6e6" d="m174.852 10.747 15.375-3.301 3.302 15.375-15.376 3.301z" data-name="Rectangle 4"/><path fill="#ccc" d="m179.432 0 4.01 18.664-18.664 4.01-4.01-18.664zm3.025 18.027L178.795.99l-17.041 3.662 3.661 17.038z" data-name="Path 14"/><path fill="#e6e6e6" d="m162.596 92.006 11.476-10.753 10.753 11.476-11.476 10.753z" data-name="Rectangle 5"/><path fill="#ccc" d="m185.643 79.651-13.933 13.05-13.051-13.928 13.933-13.05zm-13.894 11.877 12.721-11.915-11.915-12.721-12.72 11.915z" data-name="Path 15"/></g><g data-name="Group 3" transform="translate(0 159.498)"><path fill="#feb8b8" d="M87.975 400.944H68.98l-9.033-73.23h28.021z" data-name="Path 630"/><path fill="#2f2e41" d="M55.428 395.513h36.615v23.054H32.374a23.054 23.054 0 0 1 23.054-23.054z" data-name="Path 631"/><path fill="#feb8b8" d="m58.338 390.344-18.118-5.685 13.306-72.577 26.734 8.391z" data-name="Path 632"/><path fill="#2f2e41" d="m28.898 375.424 34.936 10.964-6.9 22L.002 390.522a23.054 23.054 0 0 1 28.9-15.093z" data-name="Path 633"/><path fill="#2f2e41" d="M64.515 361.122a6.907 6.907 0 0 1-2.428-.441l-13.974-5.237a6.993 6.993 0 0 1-4.358-8.028c3.517-15.812 15.5-69.642 22.064-98.515 7.783-34.248 121.322-40.612 126.152-40.865l.4-.021 12.767 16.045c4.615 14.834 3.152 26.405-4.348 34.392-21.886 23.3-87.229 8.843-95.021 7.013L71.04 356.637a6.989 6.989 0 0 1-6.525 4.487z" data-name="Path 634"/><path fill="#2f2e41" d="M84.647 371.961a6.9 6.9 0 0 1-2.428-.441l-13.969-5.239a6.992 6.992 0 0 1-4.358-8.028c3.517-15.812 15.5-69.642 22.064-98.515 7.783-34.248 121.322-40.612 126.152-40.866l.4-.021 12.768 16.048c4.615 14.835-1.073 27.03-4.348 34.392-14.651 10.564-86.756 6.978-95.021 7.012l-34.733 91.169a6.989 6.989 0 0 1-6.525 4.487z" data-name="Path 635"/><path fill="#feb8b8" d="M44.236 148.928a16.342 16.342 0 0 1 1.37 2.171l76.378 8.047 11-15.075 24.918 13.619-21.597 36.579-93.672-23.886a16.254 16.254 0 1 1 1.605-21.459z" data-name="Path 636"/><path fill="#ccc" d="M221.729 241.044a6.971 6.971 0 0 1-3.174-.773c-15.273-7.766-45.013-21.215-72.59-24.029a6.8 6.8 0 0 1-4.794-2.709 7 7 0 0 1-1.291-5.436c2.489-13.776 8.2-48.855 7.461-76.968a38.091 38.091 0 0 1 28.776-37.891 123.674 123.674 0 0 1 15.347-3.026 38.4 38.4 0 0 1 42.678 44.541c-4.918 29.135-9.876 69.827-5.567 98.233a6.98 6.98 0 0 1-2.817 6.735 6.859 6.859 0 0 1-4.029 1.323z" data-name="Path 637"/><path fill="#ccc" d="M159.683 163.267a6.971 6.971 0 0 1-2.767-.577l-19.9-8.612a6.977 6.977 0 0 1-3.627-9.164l15.38-35.528a17.81 17.81 0 0 1 32.788 13.914l-.1.234-15.38 35.529a6.987 6.987 0 0 1-6.4 4.2z" data-name="Path 638"/><path fill="#feb8b8" d="M123.684 224.932a17.042 17.042 0 1 1 6.569-32.775 16.388 16.388 0 0 1 2.03 1.029l69.287-31.1 1.947-18.792 29.867-.8-.2 31.284a16.848 16.848 0 0 1-12.175 16.019l-81.023 23.059a15.953 15.953 0 0 1-.552 1.578 17.1 17.1 0 0 1-15.744 10.5z" data-name="Path 641"/><path fill="#ccc" d="M230.872 157.223a6.962 6.962 0 0 1-2.728.737l-21.64 1.33a6.977 6.977 0 0 1-7.383-6.527l-2.371-38.643a17.81 17.81 0 1 1 35.552-2.187l2.376 38.643a6.986 6.986 0 0 1-3.8 6.647z" data-name="Path 642"/><rect width="133.18" height="10.84" fill="#1c2541" data-name="Rectangle 91" rx="1.778" transform="translate(62.73 224.339)"/><path fill="#1c2541" d="M13.06 225.115v-75.883a10.078 10.078 0 0 1 10.071-10.063H160.96a10.077 10.077 0 0 1 10.066 10.066v75.883a10.077 10.077 0 0 1-10.066 10.063H23.131a10.078 10.078 0 0 1-10.071-10.066z" data-name="Path 643"/><circle cx="9.292" cy="9.292" r="9.292" fill="#fff" data-name="Ellipse 99" transform="translate(84.41 177.885)"/><circle cx="28.945" cy="28.945" r="28.945" fill="#ffb9b9" data-name="Ellipse 5" transform="rotate(-13 212.437 -651.232)"/><path fill="#2f2e41" d="m159.878 36.883-2.784 1.882a4.378 4.378 0 0 1-2.509-5.661l.033-.084-5.707 1.04a43.763 43.763 0 0 1 62.473-19.828c.052-.945 3.252.13 4.8 1.614.053-1.53 4.289 4.829 6.354 9.538.052-1.738 2.318.526 1.454 3.4.888-.347 1.845 1.908 1.437 3.38.895-.703 1.373 2.14.717 4.266 1.403-.458 6.665 29.431-15.347 32.247-3.086-6.536-2.562-6.208-6.372-14.649-1.023-.681-2.105-1.268-3.185-1.853l-5.844-3.166c-6.795-3.676-13.35-8.643-21.3-8.769-5.46-.087-8.799.38-7.326-6.095-2.3 1.65-4.311 3.777-6.65 5.356-.156-.822-.008-1.815-.244-2.618z" data-name="Path 21"/><circle cx="5.195" cy="5.195" r="5.195" fill="#ffb9b9" data-name="Ellipse 6" transform="rotate(-13 312.207 -832.515)"/></g></svg>